{"title":"18+ Too Late 2016 UNCENSORED Movies HC HDRip XviD New +Sample ☻r","uid":15529689,"size":739412034,"categoryP":"video","categoryS":"movies","magnet":"?xt=urn:btih:54cc7f73bfc3a1e85927840139e211d4b6fdf0af&amp;dn=18%2B+Too+Late+2016+UNCENSORED+Movies+HC+HDRip+XviD+New+%2BSample+%E2%98%BBr&amp;tr=udp%3A%2F%2Ftracker.leechers-paradise.org%3A6969&amp;tr=udp%3A%2F%2Fzer0day.ch%3A1337&amp;tr=udp%3A%2F%2Fopen.demonii.com%3A1337&amp;tr=udp%3A%2F%2Ftracker.coppersurfer.tk%3A6969&amp;tr=udp%3A%2F%2Fexodus.desync.com%3A6969","seeders":0,"leechers":1,"uploader":"basicssom","files":2,"time":1470816843,"description":"----------------------------------------------------------------\r\n18+ Too Late 2016 UNCENSORED English Movies HC HDRip XviD AAC New Source with Sample ☻rDX☻\r\n\r\nSCREEN SHOTS &amp; POSTER:\r\n  \nhttp://postimage.co.nr/2016/8/hospital/index.htm  \nhttp://postimage.co.nr/2016/8/hospital/1.html  \nhttp://postimage.co.nr/2016/8/hospital/2.html  \nhttp://postimage.co.nr/2016/8/hospital/3.html  \nhttp://postimage.co.nr/2016/8/hospital/4.html  \nhttp://postimage.co.nr/2016/8/hospital/5.html  \nhttp://postimage.co.nr/2016/8/hospital/6.html  \nhttp://postimage.co.nr/2016/8/hospital/7.html  \nhttp://postimage.co.nr/2016/8/hospital/8.html  \nhttp://postimage.co.nr/2016/8/hospital/9.html  \nhttp://postimage.co.nr/2016/8/hospital/10.html\r\n\r\nFormat                                   : Matroska\r\nFormat version                           : Version 4 / Version 2\r\nFile size                                : 699 MiB\r\nDuration                                 : 1 h 47 min\r\nOverall bit rate mode                    : Constant\r\nOverall bit rate                         : 909 kb/s\r\nMovie name                               : Too Late 2016 English Movies HC HDRip XviD AAC New Source ☻rDX☻\r\n\r\nVideo\r\nID                                       : 2\r\nFormat                                   : AVC\r\nFormat/Info                              : Advanced Video Codec\r\nFormat profile                           :   \r\nFormat settings, CABAC                   : Yes\r\nFormat settings, ReFrames                : 2 frames\r\nFormat settings, GOP                     : M=1, N=12\r\nCodec ID                                 : V_MPEG4/ISO/AVC\r\nDuration                                 : 1 h 47 min\r\nBit rate mode                            : Constant\r\nBit rate                                 : 526 kb/s\r\nWidth                                    : 720 pixels\r\nHeight                                   : 304 pixels\r\nDisplay aspect ratio                     : 2.35:1\r\nFrame rate mode                          : Constant\r\nFrame rate                               : 23.976 FPS\r\nColor space                              : YUV\r\nChroma subsampling                       : 4:2:0\r\nBit depth                                : 8 bits\r\nScan type                                : Progressive\r\nBits/(Pixel*Frame)                       : 0.100\r\nStream size                              : 390 MiB (56%)\r\nTitle                                    : ☻rDX☻\r\nDefault                                  : Yes\r\nForced                                   : No\r\n\r\nAudio\r\nID                                       : 1\r\nFormat                                   : AC-3\r\nFormat/Info                              : Audio Coding 3\r\nMode extension                           : CM (complete main)\r\nFormat settings, Endianness              : Big\r\nCodec ID                                 : A_AC3\r\nDuration                                 : 1 h 47 min\r\nBit rate mode                            : Constant\r\nBit rate                                 : 384 kb/s\r\nChannel(s)                               : 6 channels\r\nChannel positions                        : Front: L C R, Side: L R, LFE\r\nSampling rate                            : 48.0 kHz\r\nFrame rate                               : 31.250 FPS (1536 spf)\r\nCompression mode                         : Lossy\r\nStream size                              : 295 MiB (42%)\r\nTitle                                    : ☻rDX☻\r\nDefault                                  : Yes\r\nForced                                   : No\r\n\r\nIMDB \nhttp://www.imdb.com/title/tt2394063/","torrent":{"xt":"urn:btih:54cc7f73bfc3a1e85927840139e211d4b6fdf0af","amp;dn":"18%2B+Too+Late+2016+UNCENSORED+Movies+HC+HDRip+XviD+New+%2BSample+%E2%98%BBr","amp;tr":["udp%3A%2F%2Ftracker.leechers-paradise.org%3A6969","udp%3A%2F%2Fzer0day.ch%3A1337","udp%3A%2F%2Fopen.demonii.com%3A1337","udp%3A%2F%2Ftracker.coppersurfer.tk%3A6969","udp%3A%2F%2Fexodus.desync.com%3A6969"],"infoHash":"54cc7f73bfc3a1e85927840139e211d4b6fdf0af","infoHashBuffer":{"type":"Buffer","data":[84,204,127,115,191,195,161,232,89,39,132,1,57,226,17,212,182,253,240,175]},"announce":[],"urlList":[]}}